<svg width="50" height="50" viewBox="0 0 50 50" fill="none" xmlns="http://www.w3.org/2000/svg">
<path d="M35.868 40.2756C33.1977 37.2933 29.318 35.4167 25 35.4167C20.682 35.4167 16.8019 37.2933 14.1317 40.2756M25 43.75C14.6447 43.75 6.25 35.3553 6.25 25C6.25 14.6447 14.6447 6.25 25 6.25C35.3553 6.25 43.75 14.6447 43.75 25C43.75 35.3553 35.3553 43.75 25 43.75ZM25 29.1667C21.5482 29.1667 18.75 26.3684 18.75 22.9167C18.75 19.4649 21.5482 16.6667 25 16.6667C28.4518 16.6667 31.25 19.4649 31.25 22.9167C31.25 26.3684 28.4518 29.1667 25 29.1667Z" stroke="white" stroke-width="2" stroke-linecap="round" stroke-linejoin="round"/>
</svg>
